<svg width="902" height="712" viewBox="0 0 902 712" fill="none" xmlns="http://www.w3.org/2000/svg">
<path d="M769.513 0.852577L766.758 19.3737C746.807 153.47 590.339 217.016 482.554 134.796L467.064 122.98C365.754 45.6987 218.718 106.042 200.89 232.218L194.655 276.344C181.755 367.637 83.0411 419.298 0.687759 377.855M774.24 12.3484L771.485 30.8695C751.534 164.966 595.066 228.512 487.281 146.292L471.791 134.476C370.481 57.1945 223.445 117.538 205.616 243.714L199.382 287.84C186.482 379.133 87.768 430.794 5.41462 389.351M778.961 23.8434L776.206 42.3645C756.255 176.461 599.787 240.007 492.002 157.787L476.512 145.971C375.202 68.6896 228.166 129.033 210.338 255.209L204.103 299.335C191.203 390.628 92.4893 442.289 10.1359 400.846M783.688 35.3397L780.933 53.8608C760.982 187.957 604.514 251.503 496.729 169.283L481.239 157.467C379.929 80.1858 232.893 140.529 215.064 266.705L208.83 310.831C195.93 402.124 97.216 453.785 14.8627 412.342M788.41 46.8349L785.655 65.356C765.704 199.453 609.236 262.998 501.451 180.778L485.961 168.962C384.651 91.681 237.615 152.025 219.787 278.2L213.552 322.326C200.652 413.619 101.938 465.281 19.5849 423.837M793.136 58.331L790.381 76.8521C770.43 210.949 613.962 274.494 506.177 192.274L490.687 180.458C389.377 103.177 242.341 163.521 224.513 289.697L218.278 333.822C205.378 425.115 106.664 476.777 24.3107 435.334M797.858 69.8281L795.103 88.3492C775.152 222.446 618.684 285.991 510.899 203.772L495.409 191.956C394.099 114.674 247.063 175.018 229.234 301.194L223 345.319C210.1 436.613 111.386 488.274 29.0327 446.831M802.581 81.3214L799.825 99.8425C779.875 233.939 623.407 297.485 515.622 215.265L500.132 203.449C398.821 126.168 251.785 186.511 233.957 312.687L227.722 356.813C214.823 448.106 116.109 499.767 33.7552 458.324M807.307 92.8191L804.552 111.34C784.601 245.437 628.133 308.982 520.348 226.763L504.858 214.947C403.548 137.665 256.512 198.009 238.684 324.185L232.449 368.31C219.549 459.604 120.835 511.265 38.4818 469.822M812.029 104.314L809.274 122.835C789.323 256.932 632.855 320.478 525.071 238.258L509.581 226.442C408.27 149.16 261.234 209.504 243.406 335.68L237.171 379.806C224.271 471.099 125.557 522.76 43.204 481.317M816.754 115.81L813.999 134.331C794.048 268.427 637.58 331.973 529.796 249.753L514.306 237.937C412.995 160.656 265.959 220.999 248.131 347.175L241.896 391.301C228.996 482.594 130.282 534.255 47.929 492.812M821.478 127.306L818.722 145.827C798.771 279.923 642.303 343.469 534.519 261.249L519.029 249.433C417.718 172.152 270.682 232.495 252.854 358.671L246.619 402.797C233.72 494.09 135.005 545.751 52.652 504.308M826.201 138.801L823.445 157.322C803.495 291.419 647.027 354.964 539.242 272.744L523.752 260.928C422.441 183.647 275.405 243.991 257.577 370.166L251.342 414.292C238.443 505.585 139.729 557.247 57.3752 515.803M830.926 150.297L828.17 168.818C808.22 302.915 651.751 366.46 543.967 284.24L528.477 272.424C427.166 195.143 280.13 255.487 262.302 381.662L256.067 425.788C243.168 517.081 144.453 568.743 62.1001 527.299M835.649 161.792L832.893 180.313C812.943 314.409 656.475 377.955 548.69 295.735L533.2 283.919C431.889 206.638 284.853 266.981 267.025 393.157L260.79 437.283C247.891 528.576 149.177 580.237 66.8233 538.794M840.26 173.016L837.504 191.537C817.554 325.633 661.086 389.179 553.301 306.959L537.811 295.143C436.5 217.862 289.464 278.205 271.636 404.381L265.401 448.507C252.502 539.8 153.788 591.461 71.4342 550.018M844.874 184.24L842.119 202.761C822.168 336.857 665.7 400.403 557.915 318.183L542.425 306.367C441.115 229.086 294.079 289.429 276.251 415.605L270.016 459.731C257.116 551.024 158.402 602.685 76.0489 561.242M849.485 195.463L846.73 213.984C826.779 348.081 670.311 411.627 562.526 329.407L547.036 317.591C445.726 240.309 298.69 300.653 280.862 426.829L274.627 470.955C261.727 562.248 163.013 613.909 80.6599 572.466M854.096 206.687L851.341 225.208C831.39 359.305 674.922 422.851 567.137 340.631L551.647 328.815C450.337 251.533 303.301 311.877 285.473 438.053L279.238 482.178C266.338 573.472 167.624 625.133 85.2708 583.69M858.707 217.909L855.952 236.43C836.001 370.526 679.533 434.072 571.749 351.852L556.259 340.036C454.948 262.755 307.912 323.099 290.084 449.274L283.849 493.4C270.949 584.693 172.235 636.355 89.882 594.911M863.323 229.133L860.568 247.654C840.617 381.751 684.149 445.296 576.364 363.076L560.874 351.26C459.564 273.979 312.528 334.323 294.699 460.498L288.465 504.624C275.565 595.917 176.851 647.579 94.4976 606.135M867.934 240.356L865.179 258.878C845.228 392.974 688.76 456.52 580.975 374.3L565.485 362.484C464.175 285.203 317.139 345.546 299.31 471.722L293.076 515.848C280.176 607.141 181.462 658.802 99.1086 617.359M872.545 251.58L869.79 270.101C849.839 404.198 693.371 467.744 585.586 385.524L570.096 373.708C468.785 296.426 321.75 356.77 303.921 482.946L297.686 527.071C284.787 618.365 186.073 670.026 103.719 628.583M877.157 262.804L874.401 281.325C854.451 415.421 697.983 478.967 590.198 396.747L574.708 384.931C473.397 307.65 326.362 367.993 308.533 494.169L302.298 538.295C289.399 629.588 190.685 681.249 108.331 639.806M881.772 274.028L879.016 292.549C859.066 426.646 702.597 490.191 594.813 407.971L579.323 396.155C478.012 318.874 330.976 379.218 313.148 505.394L306.913 549.519C294.014 640.812 195.299 692.474 112.946 651.03M886.383 285.252L883.627 303.773C863.676 437.869 707.208 501.415 599.424 419.195L583.934 407.379C482.623 330.098 335.587 390.441 317.759 516.617L311.524 560.743C298.624 652.036 199.91 703.697 117.557 662.254M890.993 296.475L888.238 314.996C868.287 449.093 711.819 512.639 604.034 430.419L588.545 418.603C487.234 341.321 340.198 401.665 322.37 527.841L316.135 571.967C303.235 663.26 204.521 714.921 122.168 673.478M895.605 307.697L892.849 326.218C872.899 460.315 716.431 523.86 608.646 441.64L593.156 429.824C491.845 352.543 344.809 412.887 326.981 539.062L320.746 583.188C307.847 674.481 209.133 726.143 126.779 684.699M900.219 318.921L897.464 337.442C877.513 471.539 721.045 535.084 613.26 452.864L597.77 441.048C496.46 363.767 349.424 424.111 331.596 550.286L325.361 594.412C312.461 685.705 213.747 737.367 131.394 695.923" stroke="url(#paint0_linear_6419_26526)" stroke-width="2"/>
<defs>
<linearGradient id="paint0_linear_6419_26526" x1="142.275" y1="554.81" x2="784.067" y2="-13.5721" gradientUnits="userSpaceOnUse">
<stop stop-color="#FF9408" stop-opacity="0"/>
<stop offset="0.354167" stop-color="#FCCA89"/>
<stop offset="0.505208" stop-color="#FF9408"/>
<stop offset="1" stop-color="#FED5A0" stop-opacity="0"/>
</linearGradient>
</defs>
</svg>
