<?xml version="1.0" encoding="utf-8"?>
<!-- Generator: Adobe Illustrator 21.0.0, SVG Export Plug-In . SVG Version: 6.00 Build 0)  -->
<svg version="1.1" id="Layer_1" xmlns="http://www.w3.org/2000/svg" xmlns:xlink="http://www.w3.org/1999/xlink" x="0px" y="0px"
	 viewBox="0 0 24 24" style="enable-background:new 0 0 24 24;" xml:space="preserve">
<style type="text/css">
	.st0{fill:#F0F0F0;}
	.st1{fill:#D80027;}
	.st2{fill:#0052B4;}
</style>
<title>Icon/south korea</title>
<desc>Created with Sketch.</desc>
<g id="Icon_x2F_south-korea">
	<g id="south-korea">
		<circle id="Oval" class="st0" cx="12" cy="12" r="12"/>
		<path id="Shape" class="st1" d="M16.2,12c0,1-1.9,3.7-4.2,3.7S7.8,13,7.8,12c0-2.3,1.9-4.2,4.2-4.2S16.2,9.7,16.2,12z"/>
		<path id="Shape_1_" class="st2" d="M16.2,12c0,2.3-1.9,4.2-4.2,4.2S7.8,14.3,7.8,12"/>
		
			<rect id="Rectangle-path" x="16.6" y="15" transform="matrix(0.7071 -0.7071 0.7071 0.7071 -5.8448 16.8203)" width="1.6" height="1"/>
		
			<rect id="Rectangle-path_1_" x="14.7" y="16.8" transform="matrix(0.7071 -0.7071 0.7071 0.7071 -7.7155 16.0083)" width="1.6" height="1"/>
		
			<rect id="Rectangle-path_2_" x="18.8" y="17.2" transform="matrix(0.7071 -0.7071 0.7071 0.7071 -6.7673 19.0206)" width="1.6" height="1"/>
		
			<rect id="Rectangle-path_3_" x="16.9" y="19" transform="matrix(0.7071 -0.7071 0.7071 0.7071 -8.6381 18.2085)" width="1.6" height="1"/>
		
			<rect id="Rectangle-path_4_" x="17.7" y="16.1" transform="matrix(0.7071 -0.7071 0.7071 0.7071 -6.3061 17.9204)" width="1.6" height="1"/>
		
			<rect id="Rectangle-path_5_" x="15.8" y="17.9" transform="matrix(0.7071 -0.7071 0.7071 0.7071 -8.1769 17.1087)" width="1.6" height="1"/>
		
			<rect id="Rectangle-path_6_" x="17" y="4.4" transform="matrix(0.7071 -0.7071 0.7071 0.7071 0.5292 14.3065)" width="1" height="4.2"/>
		
			<rect id="Rectangle-path_7_" x="15" y="5.9" transform="matrix(0.7071 -0.7071 0.7071 0.7071 -0.1796 12.945)" width="1" height="1.6"/>
		
			<rect id="Rectangle-path_8_" x="16.8" y="7.7" transform="matrix(0.7071 -0.7071 0.7071 0.7071 -0.962 14.745)" width="1" height="1.6"/>
		
			<rect id="Rectangle-path_9_" x="17.2" y="3.7" transform="matrix(0.7071 -0.7071 0.7071 0.7071 2.0208 13.8671)" width="1" height="1.6"/>
		
			<rect id="Rectangle-path_10_" x="19" y="5.5" transform="matrix(0.7071 -0.7071 0.7071 0.7071 1.2379 15.6674)" width="1" height="1.6"/>
		
			<rect id="Rectangle-path_11_" x="4.9" y="16.6" transform="matrix(0.7071 -0.7071 0.7071 0.7071 -11.6706 9.2737)" width="1" height="4.2"/>
		
			<rect id="Rectangle-path_12_" x="6.9" y="17.7" transform="matrix(0.7071 -0.7071 0.7071 0.7071 -10.8909 10.6644)" width="1" height="1.6"/>
		
			<rect id="Rectangle-path_13_" x="5" y="15.8" transform="matrix(0.7071 -0.7071 0.7071 0.7071 -10.1499 8.7643)" width="1" height="1.6"/>
		
			<rect id="Rectangle-path_14_" x="7.1" y="14.3" transform="matrix(0.7071 -0.7071 0.7071 0.7071 -9.3705 10.1549)" width="1" height="4.2"/>
		
			<rect id="Rectangle-path_15_" x="3.2" y="4.8" transform="matrix(0.7071 -0.7071 0.7071 0.7071 -2.1738 5.3292)" width="4.2" height="1"/>
		
			<rect id="Rectangle-path_16_" x="4.3" y="5.9" transform="matrix(0.7071 -0.7071 0.7071 0.7071 -2.6347 6.4292)" width="4.2" height="1"/>
		
			<rect id="Rectangle-path_17_" x="5.5" y="7.1" transform="matrix(0.7071 -0.7071 0.7071 0.7071 -3.1257 7.6)" width="4.2" height="1"/>
	</g>
</g>
</svg>
